#!OML:ASF F:\twosubjects\two\Thursday\Session 1\justin.ASF
:FULLY-SPECIFIED
:DEGREES
457
root 21.4539 13.2267 3.15706 -201.24 -86.5828 185.734
lowerback 31.7977 3.48139 -2.33755
upperback 18.1139 1.34817 1.94507
thorax 3.20238 -0.664942 2.86841
lowerneck -15.5045 3.62055 -6.29524
upperneck 37.2067 6.25734 -0.670152
head 15.5496 1.21142 1.78304
rclavicle -1.2921e-015 3.67752e-015
rhumerus -0.642013 21.9017 -78.1471
rradius 75.5544
rwrist 3.44346
rhand -17.48 26.4948
rfingers 7.12502
rthumb 8.77213 -3.30294
lclavicle -1.2921e-015 3.67752e-015
lhumerus 1.15546 -22.0624 86.0807
lradius 72.806
lwrist -14.8383
lhand -16.5447 32.3686
lfingers 7.12502
lthumb 9.67462 62.1264
rfemur -54.8241 -8.35235 15.2251
rtibia 65.9238
rfoot 5.00457 -4.07376
rtoes -3.50796
lfemur -52.8199 7.16872 -10.0413
ltibia 62.0671
lfoot 7.44595 -10.8876
ltoes -12.608
458
root 21.4608 13.2316 3.15616 -202.04 -86.4343 186.511
lowerback 31.5586 3.52546 -2.44015
upperback 18.2506 1.36628 2.02782
thorax 3.43524 -0.682357 3.00655
lowerneck -15.6945 3.36723 -6.67085
upperneck 37.3911 5.87022 -0.277621
head 15.6664 1.03789 1.95706
rclavicle 1.49089e-016 6.85807e-015
rhumerus -0.289077 22.0833 -77.8561
rradius 75.5143
rwrist 3.15064
rhand -17.1845 26.7607
rfingers 7.12502
rthumb 9.0573 -3.02487
lclavicle 1.49089e-016 6.85807e-015
lhumerus 1.26553 -21.8231 86.0789
lradius 72.834
lwrist -14.8914
lhand -15.2926 32.7916
lfingers 7.12502
lthumb 10.8825 62.4896
rfemur -54.8108 -8.32979 15.4189
rtibia 65.9015
rfoot 5.01393 -3.93046
rtoes -4.27132
lfemur -52.7791 7.28951 -9.77555
ltibia 62.1339
lfoot 7.5582 -11.2076
ltoes -12.1705
459
root 21.4644 13.2334 3.15704 -203.54 -86.3633 187.904
lowerback 31.5854 3.5206 -2.4661
upperback 18.2906 1.34049 2.09648
thorax 3.46779 -0.709007 3.09813
lowerneck -15.6957 3.248 -6.71958
upperneck 37.4713 5.64698 -0.13923
head 15.7067 0.950647 1.98773
rclavicle -2.98177e-016 -1.09332e-014
rhumerus -0.1462 22.1172 -77.9618
rradius 75.4273
rwrist 3.08612
rhand -17.1957 26.7825
rfingers 7.12502
rthumb 9.04653 -3.00349
lclavicle -2.98177e-016 -1.09332e-014
lhumerus 1.24502 -21.5807 86.0967
lradius 72.7862
lwrist -15.0006
lhand -16.1784 31.8984
lfingers 7.12502
lthumb 10.0281 61.6395
rfemur -54.572 -8.38435 15.6213
rtibia 65.8562
rfoot 4.87516 -3.84524
rtoes -5.52757
lfemur -52.6896 7.37902 -9.53347
ltibia 62.2236
lfoot 7.74451 -11.6376
ltoes -11.3563
460
root 21.4603 13.2224 3.16437 -205.439 -86.3393 189.65
lowerback 31.7322 3.45249 -2.46517
upperback 18.3142 1.23422 2.16503
thorax 3.44404 -0.775131 3.19467
lowerneck -15.6859 3.28036 -6.61004
upperneck 37.6065 5.6312 -0.107782
head 15.7737 0.95233 1.9805
rclavicle -5.76476e-015 4.37326e-015
rhumerus -0.127911 22.4267 -78.0564
rradius 75.435
rwrist 3.27009
rhand -17.2521 26.359
rfingers 7.12502
rthumb 8.9921 -3.42934
lclavicle -5.76476e-015 4.37326e-015
lhumerus 1.24849 -21.2688 86.026
lradius 72.6461
lwrist -15.3354
lhand -16.3544 31.6147
lfingers 7.12502
lthumb 9.85822 61.3639
rfemur -54.3197 -8.40403 15.748
rtibia 65.7976
rfoot 4.97012 -3.72327
rtoes -7.47846
lfemur -52.6339 7.56096 -9.65636
ltibia 62.2836
lfoot 7.57271 -11.4936
ltoes -11.8818
461
root 21.4607 13.2159 3.17336 -204.997 -86.3529 189.15
lowerback 31.8035 3.41413 -2.40966
upperback 18.3184 1.19284 2.17098
thorax 3.42616 -0.793852 3.18129
lowerneck -15.7734 3.23484 -6.75726
upperneck 37.8779 5.46761 0.262227
head 15.9127 0.896503 2.14325
rclavicle 4.57205e-015 2.5842e-015
rhumerus -0.00656726 22.5757 -77.8798
rradius 75.3792
rwrist 3.39507
rhand -17.5348 26.0258
rfingers 7.12502
rthumb 8.71924 -3.77407
lclavicle 4.57205e-015 2.5842e-015
lhumerus 1.36846 -21.2146 85.9682
lradius 72.5552
lwrist -15.6378
lhand -16.1185 31.4649
lfingers 7.12502
lthumb 10.0858 61.2032
rfemur -54.3246 -8.26565 15.5296
rtibia 65.7884
rfoot 5.04868 -3.95938
rtoes -5.78784
lfemur -52.6238 7.67487 -9.92418
ltibia 62.2252
lfoot 7.45778 -11.2453
ltoes -12.5798
462
root 21.4741 13.2296 3.17714 -202.892 -86.3679 187.086
lowerback 31.7781 3.44547 -2.32809
upperback 18.2893 1.26418 2.1581
thorax 3.40115 -0.744466 3.10692
lowerneck -15.755 3.0131 -7.05634
upperneck 38.0278 5.03868 0.751459
head 15.9703 0.736701 2.33574
rclavicle 9.83984e-015 -3.97569e-015
rhumerus 0.133359 22.3283 -77.714
rradius 75.1614
rwrist 3.45518
rhand -17.8476 26.012
rfingers 7.12502
rthumb 8.4174 -3.80029
lclavicle 9.83984e-015 -3.97569e-015
lhumerus 1.49449 -21.344 86.2413
lradius 72.4452
lwrist -15.6613
lhand -15.7607 31.5954
lfingers 7.12502
lthumb 10.431 61.3167
rfemur -54.351 -8.14186 15.2801
rtibia 65.712
rfoot 5.02155 -4.13739
rtoes -4.06013
lfemur -52.5817 7.32629 -9.59454
ltibia 62.2807
lfoot 7.89095 -11.7465
ltoes -11.0899
463
root 21.4648 13.2132 3.18195 -200.687 -86.3546 184.932
lowerback 31.6549 3.46648 -2.2934
upperback 18.3101 1.30671 2.13477
thorax 3.46877 -0.717265 3.05448
lowerneck -15.6274 2.86748 -7.1513
upperneck 38.02 4.70788 1.07802
head 15.9331 0.634456 2.43396
rclavicle 1.49089e-015 8.15017e-015
rhumerus 0.243954 22.0413 -77.6929
rradius 74.9984
rwrist 3.50971
rhand -17.7757 26.0509
rfingers 7.12502
rthumb 8.48679 -3.75859
lclavicle 1.49089e-015 8.15017e-015
lhumerus 1.67877 -21.4013 86.5065
lradius 72.2464
lwrist -15.6506
lhand -15.9597 31.5056
lfingers 7.12502
lthumb 10.239 61.2364
rfemur -54.4937 -8.12708 15.1282
rtibia 65.7726
rfoot 5.04862 -3.89384
rtoes -4.20466
lfemur -52.666 7.71219 -10.1966
ltibia 62.181
lfoot 7.46151 -11.1732
ltoes -12.8257
464
root 21.4708 13.2208 3.18388 -199.523 -86.36 183.814
lowerback 31.467 3.45662 -2.36893
upperback 18.364 1.27893 2.13186
thorax 3.59851 -0.740035 3.1002
lowerneck -15.5628 2.92517 -7.03345
upperneck 38.1234 4.66485 1.25937
head 15.9645 0.651935 2.4846
rclavicle 6.95746e-016 2.68359e-015
rhumerus 0.270395 21.8599 -77.8247
rradius 75.0274
rwrist 3.61995
rhand -17.5344 26.1048
rfingers 7.12502
rthumb 8.71971 -3.6951
lclavicle 6.95746e-016 2.68359e-015
lhumerus 1.35822 -21.8315 86.1604
lradius 72.535
lwrist -15.1833
lhand -16.4347 31.4102
lfingers 7.12502
lthumb 9.78076 61.1631
rfemur -54.5258 -8.15386 15.0796
rtibia 65.7234
rfoot 4.87561 -3.83482
rtoes -3.69069
lfemur -52.7088 7.65745 -10.1679
ltibia 62.2018
lfoot 7.63987 -11.3342
ltoes -12.766
465
root 21.4786 13.2315 3.1845 -201.246 -86.4087 185.533
lowerback 31.4531 3.22143 -2.56161
upperback 18.2979 0.93821 2.22723
thorax 3.54708 -0.932995 3.38912
lowerneck -15.5567 3.12931 -7.25112
upperneck 38.4603 5.00404 1.24889
head 16.1105 0.728677 2.57977
rclavicle 1.13307e-014 -7.95139e-016
rhumerus 0.266526 22.564 -77.9712
rradius 75.0831
rwrist 3.92954
rhand -17.5339 26.1954
rfingers 7.12502
rthumb 8.72015 -3.60446
lclavicle 1.13307e-014 -7.95139e-016
lhumerus 0.866972 -21.0961 86.1176
lradius 72.9472
lwrist -14.9801
lhand -16.3363 31.3355
lfingers 7.12502
lthumb 9.87572 61.0839
rfemur -54.5173 -8.21972 15.1918
rtibia 65.711
rfoot 4.45564 -3.76778
rtoes -4.00369
lfemur -52.7003 7.58045 -9.99614
ltibia 62.1491
lfoot 7.87953 -11.5483
ltoes -12.4847
466
root 21.4791 13.2313 3.18779 -201.713 -86.2984 185.842
lowerback 32.0963 2.49996 -3.267
upperback 18.1705 -0.22736 2.34636
thorax 3.25319 -1.6082 4.18573
lowerneck -16.2736 3.82526 -9.19347
upperneck 38.8271 6.62243 1.59947
head 16.2841 1.11649 3.3643
rclavicle 5.46658e-016 -4.62174e-015
rhumerus 1.22455 25.6487 -77.6271
rradius 74.977
rwrist 3.97549
rhand -17.6824 26.2851
rfingers 7.12502
rthumb 8.57686 -3.52071
lclavicle 5.46658e-016 -4.62174e-015
lhumerus 0.234741 -17.8639 86.2728
lradius 73.1949
lwrist -15.0982
lhand -16.3924 31.1272
lfingers 7.12502
lthumb 9.82159 60.8781
rfemur -54.3851 -8.10582 15.2356
rtibia 65.6707
rfoot 5.16127 -4.02149
rtoes -3.84327
lfemur -52.4775 7.8276 -10.0948
ltibia 62.0934
lfoot 7.61513 -11.3825
ltoes -12.8828
